<svg width="44" height="44" viewBox="0 0 44 44" fill="none" xmlns="http://www.w3.org/2000/svg">
<path d="M6.81025 27.2454H3.16533C2.80651 27.2454 2.51562 27.5362 2.51562 27.8951V36.401C2.51562 36.7598 2.80651 37.0507 3.16533 37.0507H6.81025C7.16907 37.0507 7.45995 36.7598 7.45995 36.401V27.8951C7.45995 27.5362 7.16907 27.2454 6.81025 27.2454Z" fill="#FBFBFB"/>
<path d="M14.1014 23.6003H10.4559C10.097 23.6003 9.80615 23.8912 9.80615 24.25V36.4016C9.80615 36.7604 10.097 37.0513 10.4559 37.0513H14.1014C14.4603 37.0513 14.7512 36.7604 14.7512 36.4016V24.25C14.7512 23.8912 14.4603 23.6003 14.1014 23.6003Z" fill="#FBFBFB"/>
<path d="M41.2506 7.34637L37.605 4.30815C37.4115 4.1469 37.142 4.11196 36.9136 4.21946C36.6858 4.32629 36.54 4.5554 36.54 4.80735V5.37307H19.1203C18.9383 5.37307 18.7642 5.44899 18.6413 5.58337L5.46784 19.9548H3.16533C2.80655 19.9548 2.51562 20.245 2.51562 20.6045V24.2501C2.51562 24.6089 2.80655 24.8998 3.16533 24.8998H7.26041C7.44248 24.8998 7.6165 24.8239 7.73945 24.6895L20.9122 10.3174H36.5394V10.8831C36.5394 11.1351 36.6852 11.3648 36.9129 11.471C37.1407 11.5778 37.4108 11.5429 37.6043 11.3823L41.2499 8.34477C41.3977 8.22115 41.4837 8.0384 41.4837 7.84557C41.4837 7.65274 41.399 7.46999 41.2506 7.34637Z" fill="#FBFBFB"/>
<path d="M36.5164 36.7375C36.5782 36.6381 36.6232 36.5272 36.6232 36.4016V13.3133C36.6232 12.9545 36.3323 12.6636 35.9735 12.6636H32.3279C31.9691 12.6636 31.6782 12.9538 31.6782 13.3133V31.9L36.5164 36.7375Z" fill="#FBFBFB"/>
<path d="M36.3743 39.2314C36.4811 39.1239 36.5402 38.9829 36.5402 38.8317C36.5402 38.6805 36.4811 38.5387 36.3743 38.4312L30.0331 32.0901L29.2329 32.8896L35.5741 39.2308C35.7951 39.4518 36.1532 39.4525 36.3743 39.2314Z" fill="#FBFBFB"/>
<path d="M28.6417 26.073C28.6417 23.0804 26.2075 20.6462 23.2156 20.6462C20.2238 20.6462 17.7896 23.0804 17.7896 26.073C17.7896 29.0655 20.2238 31.499 23.2156 31.499C26.2075 31.499 28.6417 29.0648 28.6417 26.073Z" fill="#FBFBFB"/>
<path d="M27.8534 32.4309L29.5727 30.7115C29.7958 30.4885 29.7944 30.1351 29.5693 29.9073L29.0554 29.3933C28.4567 30.4428 27.5846 31.3149 26.5352 31.9135L27.0518 32.4302C27.2769 32.6519 27.6303 32.6519 27.8527 32.4302L27.8534 32.4309Z" fill="#FBFBFB"/>
<path d="M22.0417 19.4561V16.9588C22.0417 16.6 21.7508 16.3091 21.392 16.3091H17.7464C17.3876 16.3091 17.0967 16.5993 17.0967 16.9588V23.2946C18.0004 21.3125 19.8352 19.8465 22.0417 19.4561Z" fill="#FBFBFB"/>
<path d="M28.2254 33.7203C27.9809 33.8311 27.7189 33.8923 27.4548 33.8923C26.9784 33.8923 26.5014 33.7122 26.1366 33.3527L25.2618 32.4773C24.9783 32.568 24.686 32.6379 24.3877 32.691V36.4024C24.3877 36.7612 24.6786 37.0521 25.0374 37.0521H28.683C29.0418 37.0521 29.3327 36.7618 29.3327 36.4024V34.8275L28.2254 33.7203Z" fill="#FBFBFB"/>
<path d="M29.3327 23.2954V13.314C29.3327 12.9552 29.0418 12.6643 28.683 12.6643H25.0374C24.6786 12.6643 24.3877 12.9546 24.3877 13.314V19.457C26.5935 19.8473 28.4283 21.314 29.332 23.2954H29.3327Z" fill="#FBFBFB"/>
<path d="M17.0972 28.8503V36.4015C17.0972 36.7603 17.3881 37.0512 17.7469 37.0512H21.3925C21.7512 37.0512 22.0422 36.761 22.0422 36.4015V32.6888C19.8357 32.2984 18.0015 30.8324 17.0978 28.8503H17.0972Z" fill="#FBFBFB"/>
</svg>
