<svg width="44" height="44" viewBox="0 0 44 44" fill="none" xmlns="http://www.w3.org/2000/svg">
<path d="M25.1504 19.0891C24.678 19.0891 24.4751 19.2698 24.1385 19.5688C23.7421 19.9215 23.1992 20.4039 22.1928 20.4039C21.1863 20.4039 20.6428 19.9215 20.2464 19.5694C19.9091 19.2698 19.7062 19.0891 19.2332 19.0891C19.0914 19.0891 18.9772 19.1099 18.873 19.1408L22.1901 31.461L25.5071 19.1388C25.4037 19.1085 25.2915 19.0884 25.151 19.0884L25.1504 19.0891Z" fill="#FBFBFB"/>
<path d="M12.6938 8.52493C12.6938 8.52493 12.6917 8.52964 12.6897 8.53165L11.3923 10.0776L10.1574 11.5531C9.94042 11.8131 9.97267 12.2021 10.23 12.4198C10.4806 12.6234 10.8723 12.5985 11.0947 12.3365L11.4857 11.8682C11.4965 11.8554 11.5072 11.8427 11.5193 11.8312C11.557 11.7909 11.6073 11.7661 11.6537 11.7358C12.2033 10.8442 12.8805 9.98022 13.7049 9.19345C13.707 9.19009 13.7083 9.18539 13.7103 9.18203C13.8306 8.93545 13.7688 8.63781 13.5565 8.46178C13.4107 8.33882 13.2588 8.31396 13.156 8.31396C12.9739 8.31396 12.806 8.39123 12.6938 8.52493Z" fill="#FBFBFB"/>
<path d="M10.2689 7.74565L8.76123 9.54157L9.5144 10.1301L10.3005 9.19354L11.145 8.18506L10.3932 7.59717L10.2689 7.74565Z" fill="#FBFBFB"/>
<path d="M7.85636 3.73549C7.29803 3.51511 6.78942 3.53191 6.20019 3.54871C5.24277 3.58029 4.08848 3.61388 2.51562 2.62354C2.60095 5.54082 4.6327 8.12821 7.49287 8.86727L8.14459 8.09058L9.5515 6.41358C9.4393 5.7753 9.04692 4.20647 7.85636 3.73549Z" fill="#FBFBFB"/>
<path d="M33.2829 17.4818C33.166 15.9768 32.7225 14.5471 32.0379 13.2537L31.1718 11.9321L30.2796 10.8457L29.128 9.7257C27.5316 8.4357 25.5906 7.5663 23.4822 7.33047C20.0664 7.05701 17.0678 7.99831 14.8171 10.071C12.0429 12.6248 11.0586 16.1468 11.0586 18.3862C11.0586 20.3017 11.5585 22.1635 12.4763 23.8095L13.4888 25.24L14.3373 26.364C14.7418 26.8733 15.1107 27.3994 15.4446 27.9423L15.4802 27.9913C15.491 28.0061 15.4936 28.0242 15.503 28.0403C15.8135 28.553 16.1017 29.075 16.3469 29.6125C16.918 30.8528 17.3178 32.1455 17.5382 33.4617H21.2724L17.6517 20.0135C17.3131 20.2285 16.877 20.4038 16.2723 20.4038C15.884 20.4038 15.5696 20.0894 15.5696 19.701C15.5696 19.3127 15.884 18.9983 16.2723 18.9983C16.7306 18.9983 16.9375 18.8263 17.256 18.5441L16.9086 17.2541C16.8078 16.8792 17.0295 16.4935 17.4051 16.3927C17.78 16.2933 18.1657 16.5143 18.2665 16.8892L18.507 17.7822C18.7193 17.7224 18.9578 17.6841 19.2333 17.6841C20.2404 17.6841 20.7833 18.1665 21.1797 18.5185C21.517 18.8182 21.7199 18.9989 22.1929 18.9989C22.6659 18.9989 22.8681 18.8182 23.2047 18.5192C23.6012 18.1665 24.144 17.6841 25.1505 17.6841C25.424 17.6841 25.6611 17.7217 25.8721 17.7808L26.112 16.8892C26.2134 16.5143 26.5997 16.2933 26.9733 16.3927C27.3482 16.4935 27.5706 16.8792 27.4698 17.2541L27.1231 18.5427C27.4423 18.8262 27.6485 18.9989 28.1061 18.9989C28.4944 18.9989 28.8089 19.3134 28.8089 19.7017C28.8089 20.09 28.4944 20.4045 28.1061 20.4045C27.5014 20.4045 27.066 20.2291 26.7274 20.0135L23.1067 33.463H26.8403C27.3173 30.5404 28.5462 27.9322 30.4146 25.8877C32.5082 23.5925 33.5274 20.6074 33.2835 17.4825L33.2829 17.4818Z" fill="#FBFBFB"/>
<path d="M17.7095 38.812C18.0313 40.2626 19.3287 41.351 20.8747 41.351H23.5044C25.0504 41.351 26.3478 40.2626 26.6696 38.812H17.7095Z" fill="#FBFBFB"/>
<path d="M27.3581 34.8682H17.0207C16.6325 34.8682 16.3179 35.1828 16.3179 35.5709V36.7037C16.3179 37.0919 16.6325 37.4065 17.0207 37.4065H27.3581C27.7463 37.4065 28.0609 37.0919 28.0609 36.7037V35.5709C28.0609 35.1828 27.7463 34.8682 27.3581 34.8682Z" fill="#FBFBFB"/>
<path d="M9.36865 27.1591L10.1547 28.095L12.3847 26.1855C12.1287 25.8637 11.8895 25.5318 11.6678 25.1885L9.36865 27.1591Z" fill="#FBFBFB"/>
<path d="M6.36135 33.8032C6.48162 33.9463 6.6516 34.035 6.83839 34.0518C7.02449 34.0625 7.20724 34.0108 7.35103 33.8898L8.75793 32.7094L6.28073 29.7578L4.87382 30.9376C4.73004 31.0586 4.64203 31.2279 4.6259 31.4153C4.6091 31.6021 4.66689 31.7842 4.78782 31.928L6.36135 33.8032Z" fill="#FBFBFB"/>
<path d="M39.7482 6.18446L38.9627 5.24854L32.2964 10.9675C32.5389 11.2981 32.7674 11.6394 32.977 11.9935L39.7482 6.18446Z" fill="#FBFBFB"/>
<path d="M38.6704 2.71271L38.7302 2.7846L39.5828 3.79913L39.5848 3.80115L40.4952 4.88488L41.4842 2.2041L38.6704 2.71271Z" fill="#FBFBFB"/>
<path d="M37.8494 33.6881C38.3271 33.8762 38.8269 33.723 39.1152 33.375C39.2892 33.1647 39.3812 32.9134 39.3812 32.646C39.3812 32.4337 39.3261 32.2381 39.218 32.0641C38.2699 30.5228 37.0868 29.1482 35.6994 27.9758L32.5839 25.3716C32.2412 25.8788 31.873 26.3727 31.4518 26.8343C30.9989 27.3294 30.5884 27.8629 30.2202 28.4286L33.2168 30.9293C34.6203 32.1038 36.1784 33.0316 37.8487 33.6874L37.8494 33.6881Z" fill="#FBFBFB"/>
<path d="M37.2742 3.23682L30.5312 9.01763C30.8376 9.29041 31.1265 9.58066 31.4047 9.88233L38.0596 4.17274L37.8695 3.94632L37.2742 3.23682Z" fill="#FBFBFB"/>
<path d="M10.7717 31.0193L8.29652 28.0671L8.29585 28.0664L7.35791 28.8532L9.83511 31.8047L10.7717 31.0193Z" fill="#FBFBFB"/>
<path d="M11.846 30.1106L13.9618 28.2952L13.2395 27.3042L11.0586 29.172L11.1399 29.2694L11.846 30.1106Z" fill="#FBFBFB"/>
</svg>
